<mxfile host="65bd71144e">
    <diagram name="Page-1" id="efa7a0a1-bf9b-a30e-e6df-94a7791c09e9">
        <mxGraphModel dx="953" dy="321" grid="1" gridSize="10" guides="1" tooltips="1" connect="1" arrows="1" fold="1" page="1" pageScale="1" pageWidth="1169" pageHeight="827" background="none" math="0" shadow="0">
            <root>
                <mxCell id="0"/>
                <mxCell id="1" parent="0"/>
                <mxCell id="25" value="&lt;p style=&quot;margin: 0px ; margin-top: 4px ; text-align: center ; text-decoration: underline&quot;&gt;&lt;strong&gt;GCEDisk:concrete-gce-nfs-disk&lt;/strong&gt;&lt;/p&gt;&lt;hr&gt;&lt;p style=&quot;margin: 0px ; margin-left: 8px&quot;&gt;Name: concrete-gce-nfs-disk&lt;/p&gt;&lt;p style=&quot;margin: 0px ; margin-left: 8px&quot;&gt;Size: 10 GB&lt;/p&gt;&lt;p style=&quot;margin: 0px ; margin-left: 8px&quot;&gt;Zone: us-east1-b&lt;/p&gt;&lt;span style=&quot;color: rgba(0 , 0 , 0 , 0) ; font-family: monospace ; font-size: 0px&quot;&gt;%3CmxGraphModel%3E%3Croot%3E%3CmxCell%20id%3D%220%22%2F%3E%3CmxCell%20id%3D%221%22%20parent%3D%220%22%2F%3E%3CmxCell%20id%3D%222%22%20value%3D%22%26lt%3Bp%20style%3D%26quot%3Bmargin%3A%200px%20%3B%20margin-top%3A%204px%20%3B%20text-align%3A%20center%20%3B%20text-decoration%3A%20underline%26quot%3B%26gt%3B%26lt%3Bstrong%26gt%3BGCE-NFS-Disk%26lt%3B%2Fstrong%26gt%3B%26lt%3B%2Fp%26gt%3B%26lt%3Bhr%26gt%3B%26lt%3Bp%20style%3D%26quot%3Bmargin%3A%200px%20%3B%20margin-left%3A%208px%26quot%3B%26gt%3BName%26lt%3B%2Fp%26gt%3B%22%20style%3D%22verticalAlign%3Dtop%3Balign%3Dleft%3Boverflow%3Dfill%3BfontSize%3D12%3BfontFamily%3DHelvetica%3Bhtml%3D1%3BstrokeColor%3D%23003366%3Bshadow%3D1%3BfillColor%3D%23D4E1F5%3BfontColor%3D%23003366%22%20vertex%3D%221%22%20parent%3D%221%22%3E%3CmxGeometry%20x%3D%2280%22%20y%3D%2280%22%20width%3D%22160%22%20height%3D%2258.36%22%20as%3D%22geometry%22%2F%3E%3C%2FmxCell%3E%3C%2Froot%3E%3C%2FmxGraphModel%3E&lt;/span&gt;&lt;span style=&quot;color: rgba(0 , 0 , 0 , 0) ; font-family: monospace ; font-size: 0px&quot;&gt;%3CmxGraphModel%3E%3Croot%3E%3CmxCell%20id%3D%220%22%2F%3E%3CmxCell%20id%3D%221%22%20parent%3D%220%22%2F%3E%3CmxCell%20id%3D%222%22%20value%3D%22%26lt%3Bp%20style%3D%26quot%3Bmargin%3A%200px%20%3B%20margin-top%3A%204px%20%3B%20text-align%3A%20center%20%3B%20text-decoration%3A%20underline%26quot%3B%26gt%3B%26lt%3Bstrong%26gt%3BGCE-NFS-Disk%26lt%3B%2Fstrong%26gt%3B%26lt%3B%2Fp%26gt%3B%26lt%3Bhr%26gt%3B%26lt%3Bp%20style%3D%26quot%3Bmargin%3A%200px%20%3B%20margin-left%3A%208px%26quot%3B%26gt%3BName%26lt%3B%2Fp%26gt%3B%22%20style%3D%22verticalAlign%3Dtop%3Balign%3Dleft%3Boverflow%3Dfill%3BfontSize%3D12%3BfontFamily%3DHelvetica%3Bhtml%3D1%3BstrokeColor%3D%23003366%3Bshadow%3D1%3BfillColor%3D%23D4E1F5%3BfontColor%3D%23003366%22%20vertex%3D%221%22%20parent%3D%221%22%3E%3CmxGeometry%20x%3D%2280%22%20y%3D%2280%22%20width%3D%22160%22%20height%3D%2258.36%22%20as%3D%22geometry%22%2F%3E%3C%2FmxCell%3E%3C%2Froot%3E%3C%2FmxGraphModel%3E&lt;/span&gt;&lt;span style=&quot;color: rgba(0 , 0 , 0 , 0) ; font-family: monospace ; font-size: 0px&quot;&gt;%3CmxGraphModel%3E%3Croot%3E%3CmxCell%20id%3D%220%22%2F%3E%3CmxCell%20id%3D%221%22%20parent%3D%220%22%2F%3E%3CmxCell%20id%3D%222%22%20value%3D%22%26lt%3Bp%20style%3D%26quot%3Bmargin%3A%200px%20%3B%20margin-top%3A%204px%20%3B%20text-align%3A%20center%20%3B%20text-decoration%3A%20underline%26quot%3B%26gt%3B%26lt%3Bstrong%26gt%3BGCE-NFS-Disk%26lt%3B%2Fstrong%26gt%3B%26lt%3B%2Fp%26gt%3B%26lt%3Bhr%26gt%3B%26lt%3Bp%20style%3D%26quot%3Bmargin%3A%200px%20%3B%20margin-left%3A%208px%26quot%3B%26gt%3BName%26lt%3B%2Fp%26gt%3B%22%20style%3D%22verticalAlign%3Dtop%3Balign%3Dleft%3Boverflow%3Dfill%3BfontSize%3D12%3BfontFamily%3DHelvetica%3Bhtml%3D1%3BstrokeColor%3D%23003366%3Bshadow%3D1%3BfillColor%3D%23D4E1F5%3BfontColor%3D%23003366%22%20vertex%3D%221%22%20parent%3D%221%22%3E%3CmxGeometry%20x%3D%2280%22%20y%3D%2280%22%20width%3D%22160%22%20height%3D%2258.36%22%20as%3D%22geometry%22%2F%3E%3C%2FmxCell%3E%3C%2Froot%3E%3C%2FmxGraphModel%3E&lt;/span&gt;&lt;span style=&quot;color: rgba(0 , 0 , 0 , 0) ; font-family: monospace ; font-size: 0px&quot;&gt;%3CmxGraphModel%3E%3Croot%3E%3CmxCell%20id%3D%220%22%2F%3E%3CmxCell%20id%3D%221%22%20parent%3D%220%22%2F%3E%3CmxCell%20id%3D%222%22%20value%3D%22%26lt%3Bp%20style%3D%26quot%3Bmargin%3A%200px%20%3B%20margin-top%3A%204px%20%3B%20text-align%3A%20center%20%3B%20text-decoration%3A%20underline%26quot%3B%26gt%3B%26lt%3Bstrong%26gt%3BGCE-NFS-Disk%26lt%3B%2Fstrong%26gt%3B%26lt%3B%2Fp%26gt%3B%26lt%3Bhr%26gt%3B%26lt%3Bp%20style%3D%26quot%3Bmargin%3A%200px%20%3B%20margin-left%3A%208px%26quot%3B%26gt%3BName%26lt%3B%2Fp%26gt%3B%22%20style%3D%22verticalAlign%3Dtop%3Balign%3Dleft%3Boverflow%3Dfill%3BfontSize%3D12%3BfontFamily%3DHelvetica%3Bhtml%3D1%3BstrokeColor%3D%23003366%3Bshadow%3D1%3BfillColor%3D%23D4E1F5%3BfontColor%3D%23003366%22%20vertex%3D%221%22%20parent%3D%221%22%3E%3CmxGeometry%20x%3D%2280%22%20y%3D%2280%22%20width%3D%22160%22%20height%3D%2258.36%22%20as%3D%22geometry%22%2F%3E%3C%2FmxCell%3E%3C%2Froot%3E%3C%2FmxGraphModel%3E&lt;/span&gt;" style="verticalAlign=top;align=left;overflow=fill;fontSize=12;fontFamily=Helvetica;html=1;strokeColor=#003366;shadow=1;fillColor=#D4E1F5;fontColor=#003366" parent="1" vertex="1">
                    <mxGeometry x="200" y="341.84" width="189" height="87.16" as="geometry"/>
                </mxCell>
                <mxCell id="ZAiZWVy9Jy8FcLG4C_XS-27" style="edgeStyle=orthogonalEdgeStyle;rounded=0;orthogonalLoop=1;jettySize=auto;html=1;exitX=1;exitY=0.75;exitDx=0;exitDy=0;" parent="1" source="J-Sc1r2uSUA0XKrwZ807-118" edge="1">
                    <mxGeometry relative="1" as="geometry">
                        <mxPoint x="680" y="410" as="targetPoint"/>
                        <Array as="points">
                            <mxPoint x="660" y="428"/>
                            <mxPoint x="660" y="410"/>
                        </Array>
                    </mxGeometry>
                </mxCell>
                <mxCell id="J-Sc1r2uSUA0XKrwZ807-118" value="&lt;p style=&quot;margin: 0px ; margin-top: 4px ; text-align: center ; text-decoration: underline&quot;&gt;&lt;strong&gt;(GCEPD) Volume:myPVC&lt;/strong&gt;&lt;/p&gt;&lt;hr&gt;&lt;p style=&quot;margin: 0px ; margin-left: 8px&quot;&gt;Name: myPvc&lt;/p&gt;&lt;p style=&quot;margin: 0px ; margin-left: 8px&quot;&gt;type: gcePersistentDisk&lt;/p&gt;&lt;p style=&quot;margin: 0px ; margin-left: 8px&quot;&gt;----Specific to GCE PD--&lt;/p&gt;&lt;p style=&quot;margin: 0px ; margin-left: 8px&quot;&gt;pdName: concrete-gce-&lt;br&gt;nfs-disk&lt;/p&gt;&lt;p style=&quot;margin: 0px ; margin-left: 8px&quot;&gt;fsType: ext4&lt;/p&gt;&lt;span style=&quot;color: rgba(0 , 0 , 0 , 0) ; font-family: monospace ; font-size: 0px&quot;&gt;%3CmxGraphModel%3E%3Croot%3E%3CmxCell%20id%3D%220%22%2F%3E%3CmxCell%20id%3D%221%22%20parent%3D%220%22%2F%3E%3CmxCell%20id%3D%222%22%20value%3D%22%26lt%3Bp%20style%3D%26quot%3Bmargin%3A%200px%20%3B%20margin-top%3A%204px%20%3B%20text-align%3A%20center%20%3B%20text-decoration%3A%20underline%26quot%3B%26gt%3B%26lt%3Bstrong%26gt%3BGCE-NFS-Disk%26lt%3B%2Fstrong%26gt%3B%26lt%3B%2Fp%26gt%3B%26lt%3Bhr%26gt%3B%26lt%3Bp%20style%3D%26quot%3Bmargin%3A%200px%20%3B%20margin-left%3A%208px%26quot%3B%26gt%3BName%26lt%3B%2Fp%26gt%3B%22%20style%3D%22verticalAlign%3Dtop%3Balign%3Dleft%3Boverflow%3Dfill%3BfontSize%3D12%3BfontFamily%3DHelvetica%3Bhtml%3D1%3BstrokeColor%3D%23003366%3Bshadow%3D1%3BfillColor%3D%23D4E1F5%3BfontColor%3D%23003366%22%20vertex%3D%221%22%20parent%3D%221%22%3E%3CmxGeometry%20x%3D%2280%22%20y%3D%2280%22%20width%3D%22160%22%20height%3D%2258.36%22%20as%3D%22geometry%22%2F%3E%3C%2FmxCell%3E%3C%2Froot%3E%3C%2FmxGraphModel%3E&lt;/span&gt;&lt;span style=&quot;color: rgba(0 , 0 , 0 , 0) ; font-family: monospace ; font-size: 0px&quot;&gt;%3CmxGraphModel%3E%3Croot%3E%3CmxCell%20id%3D%220%22%2F%3E%3CmxCell%20id%3D%221%22%20parent%3D%220%22%2F%3E%3CmxCell%20id%3D%222%22%20value%3D%22%26lt%3Bp%20style%3D%26quot%3Bmargin%3A%200px%20%3B%20margin-top%3A%204px%20%3B%20text-align%3A%20center%20%3B%20text-decoration%3A%20underline%26quot%3B%26gt%3B%26lt%3Bstrong%26gt%3BGCE-NFS-Disk%26lt%3B%2Fstrong%26gt%3B%26lt%3B%2Fp%26gt%3B%26lt%3Bhr%26gt%3B%26lt%3Bp%20style%3D%26quot%3Bmargin%3A%200px%20%3B%20margin-left%3A%208px%26quot%3B%26gt%3BName%26lt%3B%2Fp%26gt%3B%22%20style%3D%22verticalAlign%3Dtop%3Balign%3Dleft%3Boverflow%3Dfill%3BfontSize%3D12%3BfontFamily%3DHelvetica%3Bhtml%3D1%3BstrokeColor%3D%23003366%3Bshadow%3D1%3BfillColor%3D%23D4E1F5%3BfontColor%3D%23003366%22%20vertex%3D%221%22%20parent%3D%221%22%3E%3CmxGeometry%20x%3D%2280%22%20y%3D%2280%22%20width%3D%22160%22%20height%3D%2258.36%22%20as%3D%22geometry%22%2F%3E%3C%2FmxCell%3E%3C%2Froot%3E%3C%2FmxGraphModel%3E&lt;/span&gt;&lt;span style=&quot;color: rgba(0 , 0 , 0 , 0) ; font-family: monospace ; font-size: 0px&quot;&gt;%3CmxGraphModel%3E%3Croot%3E%3CmxCell%20id%3D%220%22%2F%3E%3CmxCell%20id%3D%221%22%20parent%3D%220%22%2F%3E%3CmxCell%20id%3D%222%22%20value%3D%22%26lt%3Bp%20style%3D%26quot%3Bmargin%3A%200px%20%3B%20margin-top%3A%204px%20%3B%20text-align%3A%20center%20%3B%20text-decoration%3A%20underline%26quot%3B%26gt%3B%26lt%3Bstrong%26gt%3BGCE-NFS-Disk%26lt%3B%2Fstrong%26gt%3B%26lt%3B%2Fp%26gt%3B%26lt%3Bhr%26gt%3B%26lt%3Bp%20style%3D%26quot%3Bmargin%3A%200px%20%3B%20margin-left%3A%208px%26quot%3B%26gt%3BName%26lt%3B%2Fp%26gt%3B%22%20style%3D%22verticalAlign%3Dtop%3Balign%3Dleft%3Boverflow%3Dfill%3BfontSize%3D12%3BfontFamily%3DHelvetica%3Bhtml%3D1%3BstrokeColor%3D%23003366%3Bshadow%3D1%3BfillColor%3D%23D4E1F5%3BfontColor%3D%23003366%22%20vertex%3D%221%22%20parent%3D%221%22%3E%3CmxGeometry%20x%3D%2280%22%20y%3D%2280%22%20width%3D%22160%22%20height%3D%2258.36%22%20as%3D%22geometry%22%2F%3E%3C%2FmxCell%3E%3C%2Froot%3E%3C%2FmxGraphModel%3E&lt;/span&gt;&lt;span style=&quot;color: rgba(0 , 0 , 0 , 0) ; font-family: monospace ; font-size: 0px&quot;&gt;%3CmxGraphModel%3E%3Croot%3E%3CmxCell%20id%3D%220%22%2F%3E%3CmxCell%20id%3D%221%22%20parent%3D%220%22%2F%3E%3CmxCell%20id%3D%222%22%20value%3D%22%26lt%3Bp%20style%3D%26quot%3Bmargin%3A%200px%20%3B%20margin-top%3A%204px%20%3B%20text-align%3A%20center%20%3B%20text-decoration%3A%20underline%26quot%3B%26gt%3B%26lt%3Bstrong%26gt%3BGCE-NFS-Disk%26lt%3B%2Fstrong%26gt%3B%26lt%3B%2Fp%26gt%3B%26lt%3Bhr%26gt%3B%26lt%3Bp%20style%3D%26quot%3Bmargin%3A%200px%20%3B%20margin-left%3A%208px%26quot%3B%26gt%3BName%26lt%3B%2Fp%26gt%3B%22%20style%3D%22verticalAlign%3Dtop%3Balign%3Dleft%3Boverflow%3Dfill%3BfontSize%3D12%3BfontFamily%3DHelvetica%3Bhtml%3D1%3BstrokeColor%3D%23003366%3Bshadow%3D1%3BfillColor%3D%23D4E1F5%3BfontColor%3D%23003366%22%20vertex%3D%221%22%20parent%3D%221%22%3E%3CmxGeometry%20x%3D%2280%22%20y%3D%2280%22%20width%3D%22160%22%20height%3D%2258.36%22%20as%3D%22geometry%22%2F%3E%3C%2FmxCell%3E%3C%2Froot%3E%3C%2FmxGraphModel%3E&lt;/span&gt;" style="verticalAlign=top;align=left;overflow=fill;fontSize=12;fontFamily=Helvetica;html=1;strokeColor=#003366;shadow=1;fillColor=#D4E1F5;fontColor=#003366" parent="1" vertex="1">
                    <mxGeometry x="499" y="330" width="151" height="130" as="geometry"/>
                </mxCell>
                <mxCell id="J-Sc1r2uSUA0XKrwZ807-120" value="pdName&#10;=&#10;gce-nfs-disk" style="endArrow=open;endSize=12;" parent="1" edge="1">
                    <mxGeometry x="188" y="59.83" as="geometry">
                        <mxPoint x="500" y="386" as="sourcePoint"/>
                        <mxPoint x="389" y="385.83" as="targetPoint"/>
                        <mxPoint x="6" y="1" as="offset"/>
                    </mxGeometry>
                </mxCell>
                <mxCell id="J-Sc1r2uSUA0XKrwZ807-143" value="" style="edgeStyle=none;rounded=0;orthogonalLoop=1;jettySize=auto;html=1;startArrow=open;startFill=0;endArrow=none;endFill=0;" parent="1" source="J-Sc1r2uSUA0XKrwZ807-126" target="J-Sc1r2uSUA0XKrwZ807-142" edge="1">
                    <mxGeometry relative="1" as="geometry"/>
                </mxCell>
                <mxCell id="J-Sc1r2uSUA0XKrwZ807-144" value="selector.matchLabels.role = nfs-server" style="edgeLabel;html=1;align=center;verticalAlign=middle;resizable=0;points=[];" parent="J-Sc1r2uSUA0XKrwZ807-143" vertex="1" connectable="0">
                    <mxGeometry x="-0.3" y="2" relative="1" as="geometry">
                        <mxPoint as="offset"/>
                    </mxGeometry>
                </mxCell>
                <mxCell id="J-Sc1r2uSUA0XKrwZ807-146" style="edgeStyle=none;rounded=0;orthogonalLoop=1;jettySize=auto;html=1;startArrow=open;startFill=0;endArrow=none;endFill=0;" parent="1" source="J-Sc1r2uSUA0XKrwZ807-126" target="J-Sc1r2uSUA0XKrwZ807-145" edge="1">
                    <mxGeometry relative="1" as="geometry"/>
                </mxCell>
                <mxCell id="J-Sc1r2uSUA0XKrwZ807-126" value="&lt;p style=&quot;margin: 0px ; margin-top: 4px ; text-align: center ; text-decoration: underline&quot;&gt;&lt;strong&gt;Pod:nfs-server-X&lt;/strong&gt;&lt;/p&gt;&lt;hr&gt;&lt;p style=&quot;margin: 0px ; margin-left: 8px&quot;&gt;Name: nfs-server-xxx(Assigned&lt;/p&gt;&lt;p style=&quot;margin: 0px ; margin-left: 8px&quot;&gt;during deployment)&lt;/p&gt;&lt;p style=&quot;margin: 0px ; margin-left: 8px&quot;&gt;Metadata.labels.role: nfs-server&lt;/p&gt;&lt;span style=&quot;color: rgba(0 , 0 , 0 , 0) ; font-family: monospace ; font-size: 0px&quot;&gt;mm%3CmxGraphModel%3E%3Croot%3E%3CmxCell%20id%3D%220%22%2F%3E%3CmxCell%20id%3D%221%22%20parent%3D%220%22%2F%3E%3CmxCell%20id%3D%222%22%20value%3D%22%26lt%3Bp%20style%3D%26quot%3Bmargin%3A%200px%20%3B%20margin-top%3A%204px%20%3B%20text-align%3A%20center%20%3B%20text-decoration%3A%20underline%26quot%3B%26gt%3B%26lt%3Bstrong%26gt%3BGCE-NFS-Disk%26lt%3B%2Fstrong%26gt%3B%26lt%3B%2Fp%26gt%3B%26lt%3Bhr%26gt%3B%26lt%3Bp%20style%3D%26quot%3Bmargin%3A%200px%20%3B%20margin-left%3A%208px%26quot%3B%26gt%3BName%26lt%3B%2Fp%26gt%3B%22%20style%3D%22verticalAlign%3Dtop%3Balign%3Dleft%3Boverflow%3Dfill%3BfontSize%3D12%3BfontFamily%3DHelvetica%3Bhtml%3D1%3BstrokeColor%3D%23003366%3Bshadow%3D1%3BfillColor%3D%23D4E1F5%3BfontColor%3D%23003366%22%20vertex%3D%221%22%20parent%3D%221%22%3E%3CmxGeometry%20x%3D%2280%22%20y%3D%2280%22%20width%3D%22160%22%20height%3D%2258.36%22%20as%3D%22geometry%22%2F%3E%3C%2FmxCell%3E%3C%2Froot%3E%3C%2FmxGraphModel%3E&lt;/span&gt;&lt;span style=&quot;color: rgba(0 , 0 , 0 , 0) ; font-family: monospace ; font-size: 0px&quot;&gt;%3CmxGraphModel%3E%3Croot%3E%3CmxCell%20id%3D%220%22%2F%3E%3CmxCell%20id%3D%221%22%20parent%3D%220%22%2F%3E%3CmxCell%20id%3D%222%22%20value%3D%22%26lt%3Bp%20style%3D%26quot%3Bmargin%3A%200px%20%3B%20margin-top%3A%204px%20%3B%20text-align%3A%20center%20%3B%20text-decoration%3A%20underline%26quot%3B%26gt%3B%26lt%3Bstrong%26gt%3BGCE-NFS-Disk%26lt%3B%2Fstrong%26gt%3B%26lt%3B%2Fp%26gt%3B%26lt%3Bhr%26gt%3B%26lt%3Bp%20style%3D%26quot%3Bmargin%3A%200px%20%3B%20margin-left%3A%208px%26quot%3B%26gt%3BName%26lt%3B%2Fp%26gt%3B%22%20style%3D%22verticalAlign%3Dtop%3Balign%3Dleft%3Boverflow%3Dfill%3BfontSize%3D12%3BfontFamily%3DHelvetica%3Bhtml%3D1%3BstrokeColor%3D%23003366%3Bshadow%3D1%3BfillColor%3D%23D4E1F5%3BfontColor%3D%23003366%22%20vertex%3D%221%22%20parent%3D%221%22%3E%3CmxGeometry%20x%3D%2280%22%20y%3D%2280%22%20width%3D%22160%22%20height%3D%2258.36%22%20as%3D%22geometry%22%2F%3E%3C%2FmxCell%3E%3C%2Froot%3E%3C%2FmxGraphModel%3E&lt;/span&gt;&lt;span style=&quot;color: rgba(0 , 0 , 0 , 0) ; font-family: monospace ; font-size: 0px&quot;&gt;%3CmxGraphModel%3E%3Croot%3E%3CmxCell%20id%3D%220%22%2F%3E%3CmxCell%20id%3D%221%22%20parent%3D%220%22%2F%3E%3CmxCell%20id%3D%222%22%20value%3D%22%26lt%3Bp%20style%3D%26quot%3Bmargin%3A%200px%20%3B%20margin-top%3A%204px%20%3B%20text-align%3A%20center%20%3B%20text-decoration%3A%20underline%26quot%3B%26gt%3B%26lt%3Bstrong%26gt%3BGCE-NFS-Disk%26lt%3B%2Fstrong%26gt%3B%26lt%3B%2Fp%26gt%3B%26lt%3Bhr%26gt%3B%26lt%3Bp%20style%3D%26quot%3Bmargin%3A%200px%20%3B%20margin-left%3A%208px%26quot%3B%26gt%3BName%26lt%3B%2Fp%26gt%3B%22%20style%3D%22verticalAlign%3Dtop%3Balign%3Dleft%3Boverflow%3Dfill%3BfontSize%3D12%3BfontFamily%3DHelvetica%3Bhtml%3D1%3BstrokeColor%3D%23003366%3Bshadow%3D1%3BfillColor%3D%23D4E1F5%3BfontColor%3D%23003366%22%20vertex%3D%221%22%20parent%3D%221%22%3E%3CmxGeometry%20x%3D%2280%22%20y%3D%2280%22%20width%3D%22160%22%20height%3D%2258.36%22%20as%3D%22geometry%22%2F%3E%3C%2FmxCell%3E%3C%2Froot%3E%3C%2FmxGraphModel%3E&lt;/span&gt;&lt;span style=&quot;color: rgba(0 , 0 , 0 , 0) ; font-family: monospace ; font-size: 0px&quot;&gt;%3CmxGraphModel%3E%3Croot%3E%3CmxCell%20id%3D%220%22%2F%3E%3CmxCell%20id%3D%221%22%20parent%3D%220%22%2F%3E%3CmxCell%20id%3D%222%22%20value%3D%22%26lt%3Bp%20style%3D%26quot%3Bmargin%3A%200px%20%3B%20margin-top%3A%204px%20%3B%20text-align%3A%20center%20%3B%20text-decoration%3A%20underline%26quot%3B%26gt%3B%26lt%3Bstrong%26gt%3BGCE-NFS-Disk%26lt%3B%2Fstrong%26gt%3B%26lt%3B%2Fp%26gt%3B%26lt%3Bhr%26gt%3B%26lt%3Bp%20style%3D%26quot%3Bmargin%3A%200px%20%3B%20margin-left%3A%208px%26quot%3B%26gt%3BName%26lt%3B%2Fp%26gt%3B%22%20style%3D%22verticalAlign%3Dtop%3Balign%3Dleft%3Boverflow%3Dfill%3BfontSize%3D12%3BfontFamily%3DHelvetica%3Bhtml%3D1%3BstrokeColor%3D%23003366%3Bshadow%3D1%3BfillColor%3D%23D4E1F5%3BfontColor%3D%23003366%22%20vertex%3D%221%22%20parent%3D%221%22%3E%3CmxGeometry%20x%3D%2280%22%20y%3D%2280%22%20width%3D%22160%22%20height%3D%2258.36%22%20as%3D%22geometry%22%2F%3E%3C%2FmxCell%3E%3C%2Froot%3E%3C%2FmxGraphModel%3E&lt;br&gt;m&lt;/span&gt;" style="verticalAlign=top;align=left;overflow=fill;fontSize=12;fontFamily=Helvetica;html=1;strokeColor=#003366;shadow=1;fillColor=#D4E1F5;fontColor=#003366" parent="1" vertex="1">
                    <mxGeometry x="699" y="580" width="240" height="110" as="geometry"/>
                </mxCell>
                <mxCell id="J-Sc1r2uSUA0XKrwZ807-131" value="" style="edgeStyle=none;rounded=0;orthogonalLoop=1;jettySize=auto;html=1;startArrow=diamond;startFill=0;endArrow=none;endFill=0;exitX=0.5;exitY=1;exitDx=0;exitDy=0;entryX=0.806;entryY=0;entryDx=0;entryDy=0;entryPerimeter=0;" parent="1" source="J-Sc1r2uSUA0XKrwZ807-128" target="J-Sc1r2uSUA0XKrwZ807-127" edge="1">
                    <mxGeometry relative="1" as="geometry">
                        <mxPoint x="739" y="500" as="targetPoint"/>
                    </mxGeometry>
                </mxCell>
                <mxCell id="J-Sc1r2uSUA0XKrwZ807-127" value="&lt;p style=&quot;margin: 0px ; margin-top: 4px ; text-align: center ; text-decoration: underline&quot;&gt;&lt;strong&gt;Container:nfs-server&lt;/strong&gt;&lt;/p&gt;&lt;hr&gt;&lt;p style=&quot;margin: 0px ; margin-left: 8px&quot;&gt;Name: nfs-server&lt;/p&gt;&lt;p style=&quot;margin: 0px ; margin-left: 8px&quot;&gt;Image:gcr.io/volume-nfs&lt;/p&gt;&lt;span style=&quot;color: rgba(0 , 0 , 0 , 0) ; font-family: monospace ; font-size: 0px&quot;&gt;%3CmxGraphModel%3E%3Croot%3E%3CmxCell%20id%3D%220%22%2F%3E%3CmxCell%20id%3D%221%22%20parent%3D%220%22%2F%3E%3CmxCell%20id%3D%222%22%20value%3D%22%26lt%3Bp%20style%3D%26quot%3Bmargin%3A%200px%20%3B%20margin-top%3A%204px%20%3B%20text-align%3A%20center%20%3B%20text-decoration%3A%20underline%26quot%3B%26gt%3B%26lt%3Bstrong%26gt%3BGCE-NFS-Disk%26lt%3B%2Fstrong%26gt%3B%26lt%3B%2Fp%26gt%3B%26lt%3Bhr%26gt%3B%26lt%3Bp%20style%3D%26quot%3Bmargin%3A%200px%20%3B%20margin-left%3A%208px%26quot%3B%26gt%3BName%26lt%3B%2Fp%26gt%3B%22%20style%3D%22verticalAlign%3Dtop%3Balign%3Dleft%3Boverflow%3Dfill%3BfontSize%3D12%3BfontFamily%3DHelvetica%3Bhtml%3D1%3BstrokeColor%3D%23003366%3Bshadow%3D1%3BfillColor%3D%23D4E1F5%3BfontColor%3D%23003366%22%20vertex%3D%221%22%20parent%3D%221%22%3E%3CmxGeometry%20x%3D%2280%22%20y%3D%2280%22%20width%3D%22160%22%20height%3D%2258.36%22%20as%3D%22geometry%22%2F%3E%3C%2FmxCell%3E%3C%2Froot%3E%3C%2FmxGraphModel%3E&lt;/span&gt;&lt;span style=&quot;color: rgba(0 , 0 , 0 , 0) ; font-family: monospace ; font-size: 0px&quot;&gt;%3CmxGraphModel%3E%3Croot%3E%3CmxCell%20id%3D%220%22%2F%3E%3CmxCell%20id%3D%221%22%20parent%3D%220%22%2F%3E%3CmxCell%20id%3D%222%22%20value%3D%22%26lt%3Bp%20style%3D%26quot%3Bmargin%3A%200px%20%3B%20margin-top%3A%204px%20%3B%20text-align%3A%20center%20%3B%20text-decoration%3A%20underline%26quot%3B%26gt%3B%26lt%3Bstrong%26gt%3BGCE-NFS-Disk%26lt%3B%2Fstrong%26gt%3B%26lt%3B%2Fp%26gt%3B%26lt%3Bhr%26gt%3B%26lt%3Bp%20style%3D%26quot%3Bmargin%3A%200px%20%3B%20margin-left%3A%208px%26quot%3B%26gt%3BName%26lt%3B%2Fp%26gt%3B%22%20style%3D%22verticalAlign%3Dtop%3Balign%3Dleft%3Boverflow%3Dfill%3BfontSize%3D12%3BfontFamily%3DHelvetica%3Bhtml%3D1%3BstrokeColor%3D%23003366%3Bshadow%3D1%3BfillColor%3D%23D4E1F5%3BfontColor%3D%23003366%22%20vertex%3D%221%22%20parent%3D%221%22%3E%3CmxGeometry%20x%3D%2280%22%20y%3D%2280%22%20width%3D%22160%22%20height%3D%2258.36%22%20as%3D%22geometry%22%2F%3E%3C%2FmxCell%3E%3C%2Froot%3E%3C%2FmxGraphModel%3E&lt;/span&gt;&lt;span style=&quot;color: rgba(0 , 0 , 0 , 0) ; font-family: monospace ; font-size: 0px&quot;&gt;%3CmxGraphModel%3E%3Croot%3E%3CmxCell%20id%3D%220%22%2F%3E%3CmxCell%20id%3D%221%22%20parent%3D%220%22%2F%3E%3CmxCell%20id%3D%222%22%20value%3D%22%26lt%3Bp%20style%3D%26quot%3Bmargin%3A%200px%20%3B%20margin-top%3A%204px%20%3B%20text-align%3A%20center%20%3B%20text-decoration%3A%20underline%26quot%3B%26gt%3B%26lt%3Bstrong%26gt%3BGCE-NFS-Disk%26lt%3B%2Fstrong%26gt%3B%26lt%3B%2Fp%26gt%3B%26lt%3Bhr%26gt%3B%26lt%3Bp%20style%3D%26quot%3Bmargin%3A%200px%20%3B%20margin-left%3A%208px%26quot%3B%26gt%3BName%26lt%3B%2Fp%26gt%3B%22%20style%3D%22verticalAlign%3Dtop%3Balign%3Dleft%3Boverflow%3Dfill%3BfontSize%3D12%3BfontFamily%3DHelvetica%3Bhtml%3D1%3BstrokeColor%3D%23003366%3Bshadow%3D1%3BfillColor%3D%23D4E1F5%3BfontColor%3D%23003366%22%20vertex%3D%221%22%20parent%3D%221%22%3E%3CmxGeometry%20x%3D%2280%22%20y%3D%2280%22%20width%3D%22160%22%20height%3D%2258.36%22%20as%3D%22geometry%22%2F%3E%3C%2FmxCell%3E%3C%2Froot%3E%3C%2FmxGraphModel%3E&lt;/span&gt;&lt;span style=&quot;color: rgba(0 , 0 , 0 , 0) ; font-family: monospace ; font-size: 0px&quot;&gt;%3CmxGraphModel%3E%3Croot%3E%3CmxCell%20id%3D%220%22%2F%3E%3CmxCell%20id%3D%221%22%20parent%3D%220%22%2F%3E%3CmxCell%20id%3D%222%22%20value%3D%22%26lt%3Bp%20style%3D%26quot%3Bmargin%3A%200px%20%3B%20margin-top%3A%204px%20%3B%20text-align%3A%20center%20%3B%20text-decoration%3A%20underline%26quot%3B%26gt%3B%26lt%3Bstrong%26gt%3BGCE-NFS-Disk%26lt%3B%2Fstrong%26gt%3B%26lt%3B%2Fp%26gt%3B%26lt%3Bhr%26gt%3B%26lt%3Bp%20style%3D%26quot%3Bmargin%3A%200px%20%3B%20margin-left%3A%208px%26quot%3B%26gt%3BName%26lt%3B%2Fp%26gt%3B%22%20style%3D%22verticalAlign%3Dtop%3Balign%3Dleft%3Boverflow%3Dfill%3BfontSize%3D12%3BfontFamily%3DHelvetica%3Bhtml%3D1%3BstrokeColor%3D%23003366%3Bshadow%3D1%3BfillColor%3D%23D4E1F5%3BfontColor%3D%23003366%22%20vertex%3D%221%22%20parent%3D%221%22%3E%3CmxGeometry%20x%3D%2280%22%20y%3D%2280%22%20width%3D%22160%22%20height%3D%2258.36%22%20as%3D%22geometry%22%2F%3E%3C%2FmxCell%3E%3C%2Froot%3E%3C%2FmxGraphModel%3E&lt;/span&gt;" style="verticalAlign=top;align=left;overflow=fill;fontSize=12;fontFamily=Helvetica;html=1;strokeColor=#003366;shadow=1;fillColor=#D4E1F5;fontColor=#003366" parent="1" vertex="1">
                    <mxGeometry x="380" y="580" width="160" height="110" as="geometry"/>
                </mxCell>
                <mxCell id="J-Sc1r2uSUA0XKrwZ807-129" value="" style="edgeStyle=none;rounded=0;orthogonalLoop=1;jettySize=auto;html=1;startArrow=open;startFill=0;endArrow=none;endFill=0;entryX=0;entryY=0.5;entryDx=0;entryDy=0;exitX=1;exitY=0.5;exitDx=0;exitDy=0;" parent="1" source="J-Sc1r2uSUA0XKrwZ807-118" target="J-Sc1r2uSUA0XKrwZ807-128" edge="1">
                    <mxGeometry relative="1" as="geometry">
                        <mxPoint x="709" y="400" as="sourcePoint"/>
                        <mxPoint x="739" y="460" as="targetPoint"/>
                    </mxGeometry>
                </mxCell>
                <mxCell id="J-Sc1r2uSUA0XKrwZ807-136" value="name=myPvc" style="edgeLabel;html=1;align=center;verticalAlign=middle;resizable=0;points=[];" parent="J-Sc1r2uSUA0XKrwZ807-129" vertex="1" connectable="0">
                    <mxGeometry x="-0.0784" y="-2" relative="1" as="geometry">
                        <mxPoint x="18" y="14" as="offset"/>
                    </mxGeometry>
                </mxCell>
                <mxCell id="J-Sc1r2uSUA0XKrwZ807-128" value="&lt;p style=&quot;margin: 0px ; margin-top: 4px ; text-align: center ; text-decoration: underline&quot;&gt;&lt;strong&gt;VolumeMount:/exports&lt;/strong&gt;&lt;/p&gt;&lt;hr&gt;&lt;p style=&quot;margin: 0px ; margin-left: 8px&quot;&gt;Name: nfs-server&lt;/p&gt;&lt;p style=&quot;margin: 0px ; margin-left: 8px&quot;&gt;MountPath:/exports&lt;/p&gt;&lt;span style=&quot;color: rgba(0 , 0 , 0 , 0) ; font-family: monospace ; font-size: 0px&quot;&gt;%3CmxGraphModel%3E%3Croot%3E%3CmxCell%20id%3D%220%22%2F%3E%3CmxCell%20id%3D%221%22%20parent%3D%220%22%2F%3E%3CmxCell%20id%3D%222%22%20value%3D%22%26lt%3Bp%20style%3D%26quot%3Bmargin%3A%200px%20%3B%20margin-top%3A%204px%20%3B%20text-align%3A%20center%20%3B%20text-decoration%3A%20underline%26quot%3B%26gt%3B%26lt%3Bstrong%26gt%3BGCE-NFS-Disk%26lt%3B%2Fstrong%26gt%3B%26lt%3B%2Fp%26gt%3B%26lt%3Bhr%26gt%3B%26lt%3Bp%20style%3D%26quot%3Bmargin%3A%200px%20%3B%20margin-left%3A%208px%26quot%3B%26gt%3BName%26lt%3B%2Fp%26gt%3B%22%20style%3D%22verticalAlign%3Dtop%3Balign%3Dleft%3Boverflow%3Dfill%3BfontSize%3D12%3BfontFamily%3DHelvetica%3Bhtml%3D1%3BstrokeColor%3D%23003366%3Bshadow%3D1%3BfillColor%3D%23D4E1F5%3BfontColor%3D%23003366%22%20vertex%3D%221%22%20parent%3D%221%22%3E%3CmxGeometry%20x%3D%2280%22%20y%3D%2280%22%20width%3D%22160%22%20height%3D%2258.36%22%20as%3D%22geometry%22%2F%3E%3C%2FmxCell%3E%3C%2Froot%3E%3C%2FmxGraphModel%3E&lt;/span&gt;&lt;span style=&quot;color: rgba(0 , 0 , 0 , 0) ; font-family: monospace ; font-size: 0px&quot;&gt;%3CmxGraphModel%3E%3Croot%3E%3CmxCell%20id%3D%220%22%2F%3E%3CmxCell%20id%3D%221%22%20parent%3D%220%22%2F%3E%3CmxCell%20id%3D%222%22%20value%3D%22%26lt%3Bp%20style%3D%26quot%3Bmargin%3A%200px%20%3B%20margin-top%3A%204px%20%3B%20text-align%3A%20center%20%3B%20text-decoration%3A%20underline%26quot%3B%26gt%3B%26lt%3Bstrong%26gt%3BGCE-NFS-Disk%26lt%3B%2Fstrong%26gt%3B%26lt%3B%2Fp%26gt%3B%26lt%3Bhr%26gt%3B%26lt%3Bp%20style%3D%26quot%3Bmargin%3A%200px%20%3B%20margin-left%3A%208px%26quot%3B%26gt%3BName%26lt%3B%2Fp%26gt%3B%22%20style%3D%22verticalAlign%3Dtop%3Balign%3Dleft%3Boverflow%3Dfill%3BfontSize%3D12%3BfontFamily%3DHelvetica%3Bhtml%3D1%3BstrokeColor%3D%23003366%3Bshadow%3D1%3BfillColor%3D%23D4E1F5%3BfontColor%3D%23003366%22%20vertex%3D%221%22%20parent%3D%221%22%3E%3CmxGeometry%20x%3D%2280%22%20y%3D%2280%22%20width%3D%22160%22%20height%3D%2258.36%22%20as%3D%22geometry%22%2F%3E%3C%2FmxCell%3E%3C%2Froot%3E%3C%2FmxGraphModel%3E&lt;/span&gt;&lt;span style=&quot;color: rgba(0 , 0 , 0 , 0) ; font-family: monospace ; font-size: 0px&quot;&gt;%3CmxGraphModel%3E%3Croot%3E%3CmxCell%20id%3D%220%22%2F%3E%3CmxCell%20id%3D%221%22%20parent%3D%220%22%2F%3E%3CmxCell%20id%3D%222%22%20value%3D%22%26lt%3Bp%20style%3D%26quot%3Bmargin%3A%200px%20%3B%20margin-top%3A%204px%20%3B%20text-align%3A%20center%20%3B%20text-decoration%3A%20underline%26quot%3B%26gt%3B%26lt%3Bstrong%26gt%3BGCE-NFS-Disk%26lt%3B%2Fstrong%26gt%3B%26lt%3B%2Fp%26gt%3B%26lt%3Bhr%26gt%3B%26lt%3Bp%20style%3D%26quot%3Bmargin%3A%200px%20%3B%20margin-left%3A%208px%26quot%3B%26gt%3BName%26lt%3B%2Fp%26gt%3B%22%20style%3D%22verticalAlign%3Dtop%3Balign%3Dleft%3Boverflow%3Dfill%3BfontSize%3D12%3BfontFamily%3DHelvetica%3Bhtml%3D1%3BstrokeColor%3D%23003366%3Bshadow%3D1%3BfillColor%3D%23D4E1F5%3BfontColor%3D%23003366%22%20vertex%3D%221%22%20parent%3D%221%22%3E%3CmxGeometry%20x%3D%2280%22%20y%3D%2280%22%20width%3D%22160%22%20height%3D%2258.36%22%20as%3D%22geometry%22%2F%3E%3C%2FmxCell%3E%3C%2Froot%3E%3C%2FmxGraphModel%3E&lt;/span&gt;&lt;span style=&quot;color: rgba(0 , 0 , 0 , 0) ; font-family: monospace ; font-size: 0px&quot;&gt;%3CmxGraphModel%3E%3Croot%3E%3CmxCell%20id%3D%220%22%2F%3E%3CmxCell%20id%3D%221%22%20parent%3D%220%22%2F%3E%3CmxCell%20id%3D%222%22%20value%3D%22%26lt%3Bp%20style%3D%26quot%3Bmargin%3A%200px%20%3B%20margin-top%3A%204px%20%3B%20text-align%3A%20center%20%3B%20text-decoration%3A%20underline%26quot%3B%26gt%3B%26lt%3Bstrong%26gt%3BGCE-NFS-Disk%26lt%3B%2Fstrong%26gt%3B%26lt%3B%2Fp%26gt%3B%26lt%3Bhr%26gt%3B%26lt%3Bp%20style%3D%26quot%3Bmargin%3A%200px%20%3B%20margin-left%3A%208px%26quot%3B%26gt%3BName%26lt%3B%2Fp%26gt%3B%22%20style%3D%22verticalAlign%3Dtop%3Balign%3Dleft%3Boverflow%3Dfill%3BfontSize%3D12%3BfontFamily%3DHelvetica%3Bhtml%3D1%3BstrokeColor%3D%23003366%3Bshadow%3D1%3BfillColor%3D%23D4E1F5%3BfontColor%3D%23003366%22%20vertex%3D%221%22%20parent%3D%221%22%3E%3CmxGeometry%20x%3D%2280%22%20y%3D%2280%22%20width%3D%22160%22%20height%3D%2258.36%22%20as%3D%22geometry%22%2F%3E%3C%2FmxCell%3E%3C%2Froot%3E%3C%2FmxGraphModel%3E &amp;nbsp;Mou&lt;/span&gt;" style="verticalAlign=top;align=left;overflow=fill;fontSize=12;fontFamily=Helvetica;html=1;strokeColor=#003366;shadow=1;fillColor=#D4E1F5;fontColor=#003366" parent="1" vertex="1">
                    <mxGeometry x="804" y="338" width="160" height="110" as="geometry"/>
                </mxCell>
                <mxCell id="J-Sc1r2uSUA0XKrwZ807-132" value="" style="endArrow=open;endSize=12;startArrow=diamondThin;startSize=14;startFill=1;entryX=0;entryY=0.5;rounded=0;entryDx=0;entryDy=0;exitX=1;exitY=0.5;exitDx=0;exitDy=0;" parent="1" source="J-Sc1r2uSUA0XKrwZ807-127" target="J-Sc1r2uSUA0XKrwZ807-126" edge="1">
                    <mxGeometry x="678.3599999999999" y="1110" as="geometry">
                        <mxPoint x="859" y="730" as="sourcePoint"/>
                        <mxPoint x="890.0800000000004" y="1021.9600000000007" as="targetPoint"/>
                    </mxGeometry>
                </mxCell>
                <mxCell id="J-Sc1r2uSUA0XKrwZ807-133" value="0..n" style="resizable=0;align=left;verticalAlign=top;labelBackgroundColor=#ffffff;fontSize=10;strokeColor=#003366;shadow=1;fillColor=#D4E1F5;fontColor=#003366" parent="J-Sc1r2uSUA0XKrwZ807-132" connectable="0" vertex="1">
                    <mxGeometry x="-1" relative="1" as="geometry">
                        <mxPoint x="10" y="-26.160000000000235" as="offset"/>
                    </mxGeometry>
                </mxCell>
                <mxCell id="J-Sc1r2uSUA0XKrwZ807-134" value="1" style="resizable=0;align=right;verticalAlign=top;labelBackgroundColor=#ffffff;fontSize=10;strokeColor=#003366;shadow=1;fillColor=#D4E1F5;fontColor=#003366" parent="J-Sc1r2uSUA0XKrwZ807-132" connectable="0" vertex="1">
                    <mxGeometry x="1" relative="1" as="geometry">
                        <mxPoint x="-11.080000000000421" as="offset"/>
                    </mxGeometry>
                </mxCell>
                <mxCell id="J-Sc1r2uSUA0XKrwZ807-135" value="A Pod &lt;br&gt;consist &lt;br&gt;of &lt;br&gt;one or more&amp;nbsp;&lt;br&gt;containers" style="edgeLabel;html=1;align=center;verticalAlign=middle;resizable=0;points=[];" parent="J-Sc1r2uSUA0XKrwZ807-132" vertex="1" connectable="0">
                    <mxGeometry relative="1" as="geometry">
                        <mxPoint as="offset"/>
                    </mxGeometry>
                </mxCell>
                <mxCell id="J-Sc1r2uSUA0XKrwZ807-137" value="0..n" style="resizable=0;align=left;verticalAlign=top;labelBackgroundColor=#ffffff;fontSize=10;strokeColor=#003366;shadow=1;fillColor=#D4E1F5;fontColor=#003366" parent="1" connectable="0" vertex="1">
                    <mxGeometry x="829" y="449.9999999999998" as="geometry"/>
                </mxCell>
                <mxCell id="J-Sc1r2uSUA0XKrwZ807-139" value="/exports, &amp;nbsp;local to pod" style="edgeLabel;html=1;align=center;verticalAlign=middle;resizable=0;points=[];" parent="1" vertex="1" connectable="0">
                    <mxGeometry x="620" y="530" as="geometry">
                        <mxPoint x="-4" y="4" as="offset"/>
                    </mxGeometry>
                </mxCell>
                <mxCell id="J-Sc1r2uSUA0XKrwZ807-141" value="1" style="resizable=0;align=left;verticalAlign=top;labelBackgroundColor=#ffffff;fontSize=10;strokeColor=#003366;shadow=1;fillColor=#D4E1F5;fontColor=#003366" parent="1" connectable="0" vertex="1">
                    <mxGeometry x="689" y="398.8399999999997" as="geometry"/>
                </mxCell>
                <mxCell id="J-Sc1r2uSUA0XKrwZ807-142" value="&lt;p style=&quot;margin: 0px ; margin-top: 4px ; text-align: center ; text-decoration: underline&quot;&gt;&lt;strong&gt;Deployment:nfs-server&lt;/strong&gt;&lt;/p&gt;&lt;hr&gt;&lt;p style=&quot;margin: 0px ; margin-left: 8px&quot;&gt;Name: nfs-server(Assigned&lt;/p&gt;&lt;p style=&quot;margin: 0px ; margin-left: 8px&quot;&gt;during deployment)&lt;/p&gt;&lt;p style=&quot;margin: 0px ; margin-left: 8px&quot;&gt;selector.matchLabels.role: nfs-server&lt;/p&gt;&lt;span style=&quot;color: rgba(0 , 0 , 0 , 0) ; font-family: monospace ; font-size: 0px&quot;&gt;mm%3CmxGraphModel%3E%3Croot%3E%3CmxCell%20id%3D%220%22%2F%3E%3CmxCell%20id%3D%221%22%20parent%3D%220%22%2F%3E%3CmxCell%20id%3D%222%22%20value%3D%22%26lt%3Bp%20style%3D%26quot%3Bmargin%3A%200px%20%3B%20margin-top%3A%204px%20%3B%20text-align%3A%20center%20%3B%20text-decoration%3A%20underline%26quot%3B%26gt%3B%26lt%3Bstrong%26gt%3BGCE-NFS-Disk%26lt%3B%2Fstrong%26gt%3B%26lt%3B%2Fp%26gt%3B%26lt%3Bhr%26gt%3B%26lt%3Bp%20style%3D%26quot%3Bmargin%3A%200px%20%3B%20margin-left%3A%208px%26quot%3B%26gt%3BName%26lt%3B%2Fp%26gt%3B%22%20style%3D%22verticalAlign%3Dtop%3Balign%3Dleft%3Boverflow%3Dfill%3BfontSize%3D12%3BfontFamily%3DHelvetica%3Bhtml%3D1%3BstrokeColor%3D%23003366%3Bshadow%3D1%3BfillColor%3D%23D4E1F5%3BfontColor%3D%23003366%22%20vertex%3D%221%22%20parent%3D%221%22%3E%3CmxGeometry%20x%3D%2280%22%20y%3D%2280%22%20width%3D%22160%22%20height%3D%2258.36%22%20as%3D%22geometry%22%2F%3E%3C%2FmxCell%3E%3C%2Froot%3E%3C%2FmxGraphModel%3E&lt;/span&gt;&lt;span style=&quot;color: rgba(0 , 0 , 0 , 0) ; font-family: monospace ; font-size: 0px&quot;&gt;%3CmxGraphModel%3E%3Croot%3E%3CmxCell%20id%3D%220%22%2F%3E%3CmxCell%20id%3D%221%22%20parent%3D%220%22%2F%3E%3CmxCell%20id%3D%222%22%20value%3D%22%26lt%3Bp%20style%3D%26quot%3Bmargin%3A%200px%20%3B%20margin-top%3A%204px%20%3B%20text-align%3A%20center%20%3B%20text-decoration%3A%20underline%26quot%3B%26gt%3B%26lt%3Bstrong%26gt%3BGCE-NFS-Disk%26lt%3B%2Fstrong%26gt%3B%26lt%3B%2Fp%26gt%3B%26lt%3Bhr%26gt%3B%26lt%3Bp%20style%3D%26quot%3Bmargin%3A%200px%20%3B%20margin-left%3A%208px%26quot%3B%26gt%3BName%26lt%3B%2Fp%26gt%3B%22%20style%3D%22verticalAlign%3Dtop%3Balign%3Dleft%3Boverflow%3Dfill%3BfontSize%3D12%3BfontFamily%3DHelvetica%3Bhtml%3D1%3BstrokeColor%3D%23003366%3Bshadow%3D1%3BfillColor%3D%23D4E1F5%3BfontColor%3D%23003366%22%20vertex%3D%221%22%20parent%3D%221%22%3E%3CmxGeometry%20x%3D%2280%22%20y%3D%2280%22%20width%3D%22160%22%20height%3D%2258.36%22%20as%3D%22geometry%22%2F%3E%3C%2FmxCell%3E%3C%2Froot%3E%3C%2FmxGraphModel%3E&lt;/span&gt;&lt;span style=&quot;color: rgba(0 , 0 , 0 , 0) ; font-family: monospace ; font-size: 0px&quot;&gt;%3CmxGraphModel%3E%3Croot%3E%3CmxCell%20id%3D%220%22%2F%3E%3CmxCell%20id%3D%221%22%20parent%3D%220%22%2F%3E%3CmxCell%20id%3D%222%22%20value%3D%22%26lt%3Bp%20style%3D%26quot%3Bmargin%3A%200px%20%3B%20margin-top%3A%204px%20%3B%20text-align%3A%20center%20%3B%20text-decoration%3A%20underline%26quot%3B%26gt%3B%26lt%3Bstrong%26gt%3BGCE-NFS-Disk%26lt%3B%2Fstrong%26gt%3B%26lt%3B%2Fp%26gt%3B%26lt%3Bhr%26gt%3B%26lt%3Bp%20style%3D%26quot%3Bmargin%3A%200px%20%3B%20margin-left%3A%208px%26quot%3B%26gt%3BName%26lt%3B%2Fp%26gt%3B%22%20style%3D%22verticalAlign%3Dtop%3Balign%3Dleft%3Boverflow%3Dfill%3BfontSize%3D12%3BfontFamily%3DHelvetica%3Bhtml%3D1%3BstrokeColor%3D%23003366%3Bshadow%3D1%3BfillColor%3D%23D4E1F5%3BfontColor%3D%23003366%22%20vertex%3D%221%22%20parent%3D%221%22%3E%3CmxGeometry%20x%3D%2280%22%20y%3D%2280%22%20width%3D%22160%22%20height%3D%2258.36%22%20as%3D%22geometry%22%2F%3E%3C%2FmxCell%3E%3C%2Froot%3E%3C%2FmxGraphModel%3E&lt;/span&gt;&lt;span style=&quot;color: rgba(0 , 0 , 0 , 0) ; font-family: monospace ; font-size: 0px&quot;&gt;%3CmxGraphModel%3E%3Croot%3E%3CmxCell%20id%3D%220%22%2F%3E%3CmxCell%20id%3D%221%22%20parent%3D%220%22%2F%3E%3CmxCell%20id%3D%222%22%20value%3D%22%26lt%3Bp%20style%3D%26quot%3Bmargin%3A%200px%20%3B%20margin-top%3A%204px%20%3B%20text-align%3A%20center%20%3B%20text-decoration%3A%20underline%26quot%3B%26gt%3B%26lt%3Bstrong%26gt%3BGCE-NFS-Disk%26lt%3B%2Fstrong%26gt%3B%26lt%3B%2Fp%26gt%3B%26lt%3Bhr%26gt%3B%26lt%3Bp%20style%3D%26quot%3Bmargin%3A%200px%20%3B%20margin-left%3A%208px%26quot%3B%26gt%3BName%26lt%3B%2Fp%26gt%3B%22%20style%3D%22verticalAlign%3Dtop%3Balign%3Dleft%3Boverflow%3Dfill%3BfontSize%3D12%3BfontFamily%3DHelvetica%3Bhtml%3D1%3BstrokeColor%3D%23003366%3Bshadow%3D1%3BfillColor%3D%23D4E1F5%3BfontColor%3D%23003366%22%20vertex%3D%221%22%20parent%3D%221%22%3E%3CmxGeometry%20x%3D%2280%22%20y%3D%2280%22%20width%3D%22160%22%20height%3D%2258.36%22%20as%3D%22geometry%22%2F%3E%3C%2FmxCell%3E%3C%2Froot%3E%3C%2FmxGraphModel%3E&lt;br&gt;m&lt;/span&gt;" style="verticalAlign=top;align=left;overflow=fill;fontSize=12;fontFamily=Helvetica;html=1;strokeColor=#003366;shadow=1;fillColor=#D4E1F5;fontColor=#003366" parent="1" vertex="1">
                    <mxGeometry x="699" y="760" width="240" height="110" as="geometry"/>
                </mxCell>
                <mxCell id="J-Sc1r2uSUA0XKrwZ807-145" value="&lt;p style=&quot;margin: 0px ; margin-top: 4px ; text-align: center ; text-decoration: underline&quot;&gt;&lt;strong&gt;Service:nfs-server&lt;/strong&gt;&lt;/p&gt;&lt;hr&gt;&lt;p style=&quot;margin: 0px ; margin-left: 8px&quot;&gt;Name: nfs-server(Assigned&lt;/p&gt;&lt;p style=&quot;margin: 0px ; margin-left: 8px&quot;&gt;during deployment)&lt;/p&gt;&lt;p style=&quot;margin: 0px ; margin-left: 8px&quot;&gt;selector.matchLabels.role: nfs-server&lt;/p&gt;&lt;p style=&quot;margin: 0px ; margin-left: 8px&quot;&gt;ClusterIp: &amp;lt;x.x.x.x&amp;gt; auto-assigned&lt;/p&gt;&lt;span style=&quot;color: rgba(0 , 0 , 0 , 0) ; font-family: monospace ; font-size: 0px&quot;&gt;mm%3CmxGraphModel%3E%3Croot%3E%3CmxCell%20id%3D%220%22%2F%3E%3CmxCell%20id%3D%221%22%20parent%3D%220%22%2F%3E%3CmxCell%20id%3D%222%22%20value%3D%22%26lt%3Bp%20style%3D%26quot%3Bmargin%3A%200px%20%3B%20margin-top%3A%204px%20%3B%20text-align%3A%20center%20%3B%20text-decoration%3A%20underline%26quot%3B%26gt%3B%26lt%3Bstrong%26gt%3BGCE-NFS-Disk%26lt%3B%2Fstrong%26gt%3B%26lt%3B%2Fp%26gt%3B%26lt%3Bhr%26gt%3B%26lt%3Bp%20style%3D%26quot%3Bmargin%3A%200px%20%3B%20margin-left%3A%208px%26quot%3B%26gt%3BName%26lt%3B%2Fp%26gt%3B%22%20style%3D%22verticalAlign%3Dtop%3Balign%3Dleft%3Boverflow%3Dfill%3BfontSize%3D12%3BfontFamily%3DHelvetica%3Bhtml%3D1%3BstrokeColor%3D%23003366%3Bshadow%3D1%3BfillColor%3D%23D4E1F5%3BfontColor%3D%23003366%22%20vertex%3D%221%22%20parent%3D%221%22%3E%3CmxGeometry%20x%3D%2280%22%20y%3D%2280%22%20width%3D%22160%22%20height%3D%2258.36%22%20as%3D%22geometry%22%2F%3E%3C%2FmxCell%3E%3C%2Froot%3E%3C%2FmxGraphModel%3E&lt;/span&gt;&lt;span style=&quot;color: rgba(0 , 0 , 0 , 0) ; font-family: monospace ; font-size: 0px&quot;&gt;%3CmxGraphModel%3E%3Croot%3E%3CmxCell%20id%3D%220%22%2F%3E%3CmxCell%20id%3D%221%22%20parent%3D%220%22%2F%3E%3CmxCell%20id%3D%222%22%20value%3D%22%26lt%3Bp%20style%3D%26quot%3Bmargin%3A%200px%20%3B%20margin-top%3A%204px%20%3B%20text-align%3A%20center%20%3B%20text-decoration%3A%20underline%26quot%3B%26gt%3B%26lt%3Bstrong%26gt%3BGCE-NFS-Disk%26lt%3B%2Fstrong%26gt%3B%26lt%3B%2Fp%26gt%3B%26lt%3Bhr%26gt%3B%26lt%3Bp%20style%3D%26quot%3Bmargin%3A%200px%20%3B%20margin-left%3A%208px%26quot%3B%26gt%3BName%26lt%3B%2Fp%26gt%3B%22%20style%3D%22verticalAlign%3Dtop%3Balign%3Dleft%3Boverflow%3Dfill%3BfontSize%3D12%3BfontFamily%3DHelvetica%3Bhtml%3D1%3BstrokeColor%3D%23003366%3Bshadow%3D1%3BfillColor%3D%23D4E1F5%3BfontColor%3D%23003366%22%20vertex%3D%221%22%20parent%3D%221%22%3E%3CmxGeometry%20x%3D%2280%22%20y%3D%2280%22%20width%3D%22160%22%20height%3D%2258.36%22%20as%3D%22geometry%22%2F%3E%3C%2FmxCell%3E%3C%2Froot%3E%3C%2FmxGraphModel%3E&lt;/span&gt;&lt;span style=&quot;color: rgba(0 , 0 , 0 , 0) ; font-family: monospace ; font-size: 0px&quot;&gt;%3CmxGraphModel%3E%3Croot%3E%3CmxCell%20id%3D%220%22%2F%3E%3CmxCell%20id%3D%221%22%20parent%3D%220%22%2F%3E%3CmxCell%20id%3D%222%22%20value%3D%22%26lt%3Bp%20style%3D%26quot%3Bmargin%3A%200px%20%3B%20margin-top%3A%204px%20%3B%20text-align%3A%20center%20%3B%20text-decoration%3A%20underline%26quot%3B%26gt%3B%26lt%3Bstrong%26gt%3BGCE-NFS-Disk%26lt%3B%2Fstrong%26gt%3B%26lt%3B%2Fp%26gt%3B%26lt%3Bhr%26gt%3B%26lt%3Bp%20style%3D%26quot%3Bmargin%3A%200px%20%3B%20margin-left%3A%208px%26quot%3B%26gt%3BName%26lt%3B%2Fp%26gt%3B%22%20style%3D%22verticalAlign%3Dtop%3Balign%3Dleft%3Boverflow%3Dfill%3BfontSize%3D12%3BfontFamily%3DHelvetica%3Bhtml%3D1%3BstrokeColor%3D%23003366%3Bshadow%3D1%3BfillColor%3D%23D4E1F5%3BfontColor%3D%23003366%22%20vertex%3D%221%22%20parent%3D%221%22%3E%3CmxGeometry%20x%3D%2280%22%20y%3D%2280%22%20width%3D%22160%22%20height%3D%2258.36%22%20as%3D%22geometry%22%2F%3E%3C%2FmxCell%3E%3C%2Froot%3E%3C%2FmxGraphModel%3E&lt;/span&gt;&lt;span style=&quot;color: rgba(0 , 0 , 0 , 0) ; font-family: monospace ; font-size: 0px&quot;&gt;%3CmxGraphModel%3E%3Croot%3E%3CmxCell%20id%3D%220%22%2F%3E%3CmxCell%20id%3D%221%22%20parent%3D%220%22%2F%3E%3CmxCell%20id%3D%222%22%20value%3D%22%26lt%3Bp%20style%3D%26quot%3Bmargin%3A%200px%20%3B%20margin-top%3A%204px%20%3B%20text-align%3A%20center%20%3B%20text-decoration%3A%20underline%26quot%3B%26gt%3B%26lt%3Bstrong%26gt%3BGCE-NFS-Disk%26lt%3B%2Fstrong%26gt%3B%26lt%3B%2Fp%26gt%3B%26lt%3Bhr%26gt%3B%26lt%3Bp%20style%3D%26quot%3Bmargin%3A%200px%20%3B%20margin-left%3A%208px%26quot%3B%26gt%3BName%26lt%3B%2Fp%26gt%3B%22%20style%3D%22verticalAlign%3Dtop%3Balign%3Dleft%3Boverflow%3Dfill%3BfontSize%3D12%3BfontFamily%3DHelvetica%3Bhtml%3D1%3BstrokeColor%3D%23003366%3Bshadow%3D1%3BfillColor%3D%23D4E1F5%3BfontColor%3D%23003366%22%20vertex%3D%221%22%20parent%3D%221%22%3E%3CmxGeometry%20x%3D%2280%22%20y%3D%2280%22%20width%3D%22160%22%20height%3D%2258.36%22%20as%3D%22geometry%22%2F%3E%3C%2FmxCell%3E%3C%2Froot%3E%3C%2FmxGraphModel%3EClusClust&lt;br&gt;&lt;/span&gt;" style="verticalAlign=top;align=left;overflow=fill;fontSize=12;fontFamily=Helvetica;html=1;strokeColor=#003366;shadow=1;fillColor=#D4E1F5;fontColor=#003366" parent="1" vertex="1">
                    <mxGeometry x="380" y="760" width="240" height="110" as="geometry"/>
                </mxCell>
                <mxCell id="J-Sc1r2uSUA0XKrwZ807-147" value="selector.matchLabels.role = nfs-server" style="edgeLabel;html=1;align=center;verticalAlign=middle;resizable=0;points=[];" parent="1" vertex="1" connectable="0">
                    <mxGeometry x="641" y="731.3333333333333" as="geometry"/>
                </mxCell>
                <mxCell id="J-Sc1r2uSUA0XKrwZ807-148" value="Note: nfs-server&amp;nbsp;&lt;br&gt;directly mounts&amp;nbsp;&lt;br&gt;it as a volume NOT as PV" style="shape=note;size=20;whiteSpace=wrap;html=1;" parent="1" vertex="1">
                    <mxGeometry x="689" y="220" width="100" height="100" as="geometry"/>
                </mxCell>
                <mxCell id="RGx6SVXxpjA41WOx7smk-28" style="edgeStyle=orthogonalEdgeStyle;rounded=0;orthogonalLoop=1;jettySize=auto;html=1;entryX=0.5;entryY=1;entryDx=0;entryDy=0;" parent="1" source="J-Sc1r2uSUA0XKrwZ807-153" target="J-Sc1r2uSUA0XKrwZ807-145" edge="1">
                    <mxGeometry relative="1" as="geometry"/>
                </mxCell>
                <mxCell id="RGx6SVXxpjA41WOx7smk-29" value="server=&amp;lt;x.x.x.x&amp;gt;" style="edgeLabel;html=1;align=center;verticalAlign=middle;resizable=0;points=[];" parent="RGx6SVXxpjA41WOx7smk-28" vertex="1" connectable="0">
                    <mxGeometry x="0.1273" y="-1" relative="1" as="geometry">
                        <mxPoint as="offset"/>
                    </mxGeometry>
                </mxCell>
                <mxCell id="J-Sc1r2uSUA0XKrwZ807-153" value="&lt;p style=&quot;margin: 0px ; margin-top: 4px ; text-align: center ; text-decoration: underline&quot;&gt;&lt;strong&gt;PersistentVolume:nfs&lt;/strong&gt;&lt;/p&gt;&lt;hr&gt;&lt;p style=&quot;margin: 0px ; margin-left: 8px&quot;&gt;Name: concrete-images-pv-nfs&lt;/p&gt;&lt;p style=&quot;margin: 0px ; margin-left: 8px&quot;&gt;storage:10G&lt;/p&gt;&lt;p style=&quot;margin: 0px ; margin-left: 8px&quot;&gt;accessMode: RWMany&lt;/p&gt;&lt;p style=&quot;margin: 0px ; margin-left: 8px&quot;&gt;&lt;/p&gt;nfs.server: &amp;lt;x.x.x.x&amp;gt;&lt;span style=&quot;color: rgba(0 , 0 , 0 , 0) ; font-family: monospace ; font-size: 0px&quot;&gt;mm%3CmxGraphModel%3E%3Croot%3E%3CmxCell%20id%3D%220%22%2F%3E%3CmxCell%20id%3D%221%22%20parent%3D%220%22%2F%3E%3CmxCell%20id%3D%222%22%20value%3D%22%26lt%3Bp%20style%3D%26quot%3Bmargin%3A%200px%20%3B%20margin-top%3A%204px%20%3B%20text-align%3A%20center%20%3B%20text-decoration%3A%20underline%26quot%3B%26gt%3B%26lt%3Bstrong%26gt%3BGCE-NFS-Disk%26lt%3B%2Fstrong%26gt%3B%26lt%3B%2Fp%26gt%3B%26lt%3Bhr%26gt%3B%26lt%3Bp%20style%3D%26quot%3Bmargin%3A%200px%20%3B%20margin-left%3A%208px%26quot%3B%26gt%3BName%26lt%3B%2Fp%26gt%3B%22%20style%3D%22verticalAlign%3Dtop%3Balign%3Dleft%3Boverflow%3Dfill%3BfontSize%3D12%3BfontFamily%3DHelvetica%3Bhtml%3D1%3BstrokeColor%3D%23003366%3Bshadow%3D1%3BfillColor%3D%23D4E1F5%3BfontColor%3D%23003366%22%20vertex%3D%221%22%20parent%3D%221%22%3E%3CmxGeometry%20x%3D%2280%22%20y%3D%2280%22%20width%3D%22160%22%20height%3D%2258.36%22%20as%3D%22geometry%22%2F%3E%3C%2FmxCell%3E%3C%2Froot%3E%3C%2FmxGraphModel%3E&lt;/span&gt;&lt;span style=&quot;color: rgba(0 , 0 , 0 , 0) ; font-family: monospace ; font-size: 0px&quot;&gt;%3CmxGraphModel%3E%3Croot%3E%3CmxCell%20id%3D%220%22%2F%3E%3CmxCell%20id%3D%221%22%20parent%3D%220%22%2F%3E%3CmxCell%20id%3D%222%22%20value%3D%22%26lt%3Bp%20style%3D%26quot%3Bmargin%3A%200px%20%3B%20margin-top%3A%204px%20%3B%20text-align%3A%20center%20%3B%20text-decoration%3A%20underline%26quot%3B%26gt%3B%26lt%3Bstrong%26gt%3BGCE-NFS-Disk%26lt%3B%2Fstrong%26gt%3B%26lt%3B%2Fp%26gt%3B%26lt%3Bhr%26gt%3B%26lt%3Bp%20style%3D%26quot%3Bmargin%3A%200px%20%3B%20margin-left%3A%208px%26quot%3B%26gt%3BName%26lt%3B%2Fp%26gt%3B%22%20style%3D%22verticalAlign%3Dtop%3Balign%3Dleft%3Boverflow%3Dfill%3BfontSize%3D12%3BfontFamily%3DHelvetica%3Bhtml%3D1%3BstrokeColor%3D%23003366%3Bshadow%3D1%3BfillColor%3D%23D4E1F5%3BfontColor%3D%23003366%22%20vertex%3D%221%22%20parent%3D%221%22%3E%3CmxGeometry%20x%3D%2280%22%20y%3D%2280%22%20width%3D%22160%22%20height%3D%2258.36%22%20as%3D%22geometry%22%2F%3E%3C%2FmxCell%3E%3C%2Froot%3E%3C%2FmxGraphModel%3E&lt;/span&gt;&lt;span style=&quot;color: rgba(0 , 0 , 0 , 0) ; font-family: monospace ; font-size: 0px&quot;&gt;%3CmxGraphModel%3E%3Croot%3E%3CmxCell%20id%3D%220%22%2F%3E%3CmxCell%20id%3D%221%22%20parent%3D%220%22%2F%3E%3CmxCell%20id%3D%222%22%20value%3D%22%26lt%3Bp%20style%3D%26quot%3Bmargin%3A%200px%20%3B%20margin-top%3A%204px%20%3B%20text-align%3A%20center%20%3B%20text-decoration%3A%20underline%26quot%3B%26gt%3B%26lt%3Bstrong%26gt%3BGCE-NFS-Disk%26lt%3B%2Fstrong%26gt%3B%26lt%3B%2Fp%26gt%3B%26lt%3Bhr%26gt%3B%26lt%3Bp%20style%3D%26quot%3Bmargin%3A%200px%20%3B%20margin-left%3A%208px%26quot%3B%26gt%3BName%26lt%3B%2Fp%26gt%3B%22%20style%3D%22verticalAlign%3Dtop%3Balign%3Dleft%3Boverflow%3Dfill%3BfontSize%3D12%3BfontFamily%3DHelvetica%3Bhtml%3D1%3BstrokeColor%3D%23003366%3Bshadow%3D1%3BfillColor%3D%23D4E1F5%3BfontColor%3D%23003366%22%20vertex%3D%221%22%20parent%3D%221%22%3E%3CmxGeometry%20x%3D%2280%22%20y%3D%2280%22%20width%3D%22160%22%20height%3D%2258.36%22%20as%3D%22geometry%22%2F%3E%3C%2FmxCell%3E%3C%2Froot%3E%3C%2FmxGraphModel%3E&lt;/span&gt;&lt;span style=&quot;color: rgba(0 , 0 , 0 , 0) ; font-family: monospace ; font-size: 0px&quot;&gt;%3CmxGraphModel%3E%3Croot%3E%3CmxCell%20id%3D%220%22%2F%3E%3CmxCell%20id%3D%221%22%20parent%3D%220%22%2F%3E%3CmxCell%20id%3D%222%22%20value%3D%22%26lt%3Bp%20style%3D%26quot%3Bmargin%3A%200px%20%3B%20margin-top%3A%204px%20%3B%20text-align%3A%20center%20%3B%20text-decoration%3A%20underline%26quot%3B%26gt%3B%26lt%3Bstrong%26gt%3BGCE-NFS-Disk%26lt%3B%2Fstrong%26gt%3B%26lt%3B%2Fp%26gt%3B%26lt%3Bhr%26gt%3B%26lt%3Bp%20style%3D%26quot%3Bmargin%3A%200px%20%3B%20margin-left%3A%208px%26quot%3B%26gt%3BName%26lt%3B%2Fp%26gt%3B%22%20style%3D%22verticalAlign%3Dtop%3Balign%3Dleft%3Boverflow%3Dfill%3BfontSize%3D12%3BfontFamily%3DHelvetica%3Bhtml%3D1%3BstrokeColor%3D%23003366%3Bshadow%3D1%3BfillColor%3D%23D4E1F5%3BfontColor%3D%23003366%22%20vertex%3D%221%22%20parent%3D%221%22%3E%3CmxGeometry%20x%3D%2280%22%20y%3D%2280%22%20width%3D%22160%22%20height%3D%2258.36%22%20as%3D%22geometry%22%2F%3E%3C%2FmxCell%3E%3C%2Froot%3E%3C%2FmxGraphModel%3EClusClust&lt;br&gt;&lt;/span&gt;" style="verticalAlign=top;align=left;overflow=fill;fontSize=12;fontFamily=Helvetica;html=1;strokeColor=#003366;shadow=1;fillColor=#D4E1F5;fontColor=#003366" parent="1" vertex="1">
                    <mxGeometry x="380" y="980" width="240" height="110" as="geometry"/>
                </mxCell>
                <mxCell id="RGx6SVXxpjA41WOx7smk-26" value="1" style="ellipse;whiteSpace=wrap;html=1;aspect=fixed;" parent="1" vertex="1">
                    <mxGeometry x="220" y="300" width="30" height="30" as="geometry"/>
                </mxCell>
                <mxCell id="RGx6SVXxpjA41WOx7smk-27" value="2" style="ellipse;whiteSpace=wrap;html=1;aspect=fixed;" parent="1" vertex="1">
                    <mxGeometry x="499" y="290" width="30" height="30" as="geometry"/>
                </mxCell>
                <mxCell id="RGx6SVXxpjA41WOx7smk-39" style="edgeStyle=orthogonalEdgeStyle;rounded=0;orthogonalLoop=1;jettySize=auto;html=1;entryX=0.192;entryY=1.027;entryDx=0;entryDy=0;entryPerimeter=0;" parent="1" source="RGx6SVXxpjA41WOx7smk-30" target="RGx6SVXxpjA41WOx7smk-32" edge="1">
                    <mxGeometry relative="1" as="geometry"/>
                </mxCell>
                <mxCell id="RGx6SVXxpjA41WOx7smk-40" value="name&lt;br&gt;=&lt;br&gt;concrete&lt;br&gt;-images&lt;br&gt;-pv-nfs" style="edgeLabel;html=1;align=center;verticalAlign=middle;resizable=0;points=[];" parent="RGx6SVXxpjA41WOx7smk-39" vertex="1" connectable="0">
                    <mxGeometry x="-0.1905" y="2" relative="1" as="geometry">
                        <mxPoint as="offset"/>
                    </mxGeometry>
                </mxCell>
                <mxCell id="RGx6SVXxpjA41WOx7smk-30" value="&lt;p style=&quot;margin: 0px ; margin-top: 4px ; text-align: center ; text-decoration: underline&quot;&gt;&lt;strong&gt;Pod:imageUpload&lt;/strong&gt;&lt;/p&gt;&lt;hr&gt;&lt;p style=&quot;margin: 0px ; margin-left: 8px&quot;&gt;Name: image-upload-pod(depl)&lt;/p&gt;&lt;p style=&quot;margin: 0px ; margin-left: 8px&quot;&gt;&lt;/p&gt;&lt;span style=&quot;color: rgba(0 , 0 , 0 , 0) ; font-family: monospace ; font-size: 0px&quot;&gt;&lt;br&gt;&lt;/span&gt;" style="verticalAlign=top;align=left;overflow=fill;fontSize=12;fontFamily=Helvetica;html=1;strokeColor=#003366;shadow=1;fillColor=#D4E1F5;fontColor=#003366" parent="1" vertex="1">
                    <mxGeometry x="380" y="1110" width="240" height="60" as="geometry"/>
                </mxCell>
                <mxCell id="RGx6SVXxpjA41WOx7smk-33" style="edgeStyle=orthogonalEdgeStyle;rounded=0;orthogonalLoop=1;jettySize=auto;html=1;entryX=1;entryY=0.5;entryDx=0;entryDy=0;" parent="1" source="RGx6SVXxpjA41WOx7smk-32" target="J-Sc1r2uSUA0XKrwZ807-153" edge="1">
                    <mxGeometry relative="1" as="geometry"/>
                </mxCell>
                <mxCell id="RGx6SVXxpjA41WOx7smk-34" value="automatically&lt;br&gt;assign" style="edgeLabel;html=1;align=center;verticalAlign=middle;resizable=0;points=[];" parent="RGx6SVXxpjA41WOx7smk-33" vertex="1" connectable="0">
                    <mxGeometry x="-0.4958" y="3" relative="1" as="geometry">
                        <mxPoint x="-10" y="-3" as="offset"/>
                    </mxGeometry>
                </mxCell>
                <mxCell id="RGx6SVXxpjA41WOx7smk-32" value="&lt;p style=&quot;margin: 0px ; margin-top: 4px ; text-align: center ; text-decoration: underline&quot;&gt;&lt;strong&gt;PersistentVolumeClaim:pvc-nfs&lt;/strong&gt;&lt;/p&gt;&lt;hr&gt;&lt;p style=&quot;margin: 0px ; margin-left: 8px&quot;&gt;Name: concrete-images-pvc-nfs&lt;/p&gt;&lt;p style=&quot;margin: 0px ; margin-left: 8px&quot;&gt;storage:10G&lt;/p&gt;&lt;p style=&quot;margin: 0px ; margin-left: 8px&quot;&gt;accessMode: RWMany&lt;/p&gt;&lt;p style=&quot;margin: 0px ; margin-left: 8px&quot;&gt;&lt;/p&gt;&lt;span style=&quot;color: rgba(0 , 0 , 0 , 0) ; font-family: monospace ; font-size: 0px&quot;&gt;&lt;br&gt;&lt;/span&gt;" style="verticalAlign=top;align=left;overflow=fill;fontSize=12;fontFamily=Helvetica;html=1;strokeColor=#003366;shadow=1;fillColor=#D4E1F5;fontColor=#003366" parent="1" vertex="1">
                    <mxGeometry x="699" y="940" width="240" height="110" as="geometry"/>
                </mxCell>
                <mxCell id="RGx6SVXxpjA41WOx7smk-35" value="If PV is created to use PD , PVC will automatically be assigned to the existing PV, otherwise a default one will be created. Ensure you create it and default is NOT being used." style="text;html=1;strokeColor=none;fillColor=none;align=center;verticalAlign=middle;whiteSpace=wrap;rounded=0;" parent="1" vertex="1">
                    <mxGeometry x="629" y="880" width="310" height="50" as="geometry"/>
                </mxCell>
                <mxCell id="RGx6SVXxpjA41WOx7smk-46" style="edgeStyle=orthogonalEdgeStyle;rounded=0;orthogonalLoop=1;jettySize=auto;html=1;" parent="1" source="RGx6SVXxpjA41WOx7smk-41" edge="1">
                    <mxGeometry relative="1" as="geometry">
                        <mxPoint x="779" y="1051" as="targetPoint"/>
                        <Array as="points">
                            <mxPoint x="779" y="1220"/>
                            <mxPoint x="779" y="1051"/>
                        </Array>
                    </mxGeometry>
                </mxCell>
                <mxCell id="RGx6SVXxpjA41WOx7smk-41" value="&lt;p style=&quot;margin: 0px ; margin-top: 4px ; text-align: center ; text-decoration: underline&quot;&gt;&lt;strong&gt;Pod:crackDetection&lt;/strong&gt;&lt;/p&gt;&lt;hr&gt;&lt;p style=&quot;margin: 0px ; margin-left: 8px&quot;&gt;Name: crack-detection-pod(depl)&lt;/p&gt;&lt;p style=&quot;margin: 0px ; margin-left: 8px&quot;&gt;&lt;/p&gt;&lt;span style=&quot;color: rgba(0 , 0 , 0 , 0) ; font-family: monospace ; font-size: 0px&quot;&gt;&lt;br&gt;&lt;/span&gt;" style="verticalAlign=top;align=left;overflow=fill;fontSize=12;fontFamily=Helvetica;html=1;strokeColor=#003366;shadow=1;fillColor=#D4E1F5;fontColor=#003366" parent="1" vertex="1">
                    <mxGeometry x="380" y="1190" width="240" height="60" as="geometry"/>
                </mxCell>
                <mxCell id="RGx6SVXxpjA41WOx7smk-49" style="edgeStyle=orthogonalEdgeStyle;rounded=0;orthogonalLoop=1;jettySize=auto;html=1;entryX=0.5;entryY=1;entryDx=0;entryDy=0;" parent="1" source="RGx6SVXxpjA41WOx7smk-44" target="RGx6SVXxpjA41WOx7smk-32" edge="1">
                    <mxGeometry relative="1" as="geometry"/>
                </mxCell>
                <mxCell id="RGx6SVXxpjA41WOx7smk-44" value="&lt;p style=&quot;margin: 0px ; margin-top: 4px ; text-align: center ; text-decoration: underline&quot;&gt;&lt;strong&gt;Pod:nodeGallery&lt;/strong&gt;&lt;/p&gt;&lt;p style=&quot;margin: 0px ; margin-left: 8px&quot;&gt;Name: concrete-image-gallery-pod(depl)&lt;/p&gt;&lt;p style=&quot;margin: 0px ; margin-left: 8px&quot;&gt;&lt;/p&gt;&lt;span style=&quot;color: rgba(0 , 0 , 0 , 0) ; font-family: monospace ; font-size: 0px&quot;&gt;&lt;br&gt;&lt;/span&gt;" style="verticalAlign=top;align=left;overflow=fill;fontSize=12;fontFamily=Helvetica;html=1;strokeColor=#003366;shadow=1;fillColor=#D4E1F5;fontColor=#003366" parent="1" vertex="1">
                    <mxGeometry x="380" y="1270" width="240" height="60" as="geometry"/>
                </mxCell>
                <mxCell id="RGx6SVXxpjA41WOx7smk-51" value="So /app/uploads/images&amp;nbsp;&lt;br&gt;is an alias used by concrete image gallery to refer the same central location." style="text;html=1;strokeColor=none;fillColor=none;align=center;verticalAlign=middle;whiteSpace=wrap;rounded=0;" parent="1" vertex="1">
                    <mxGeometry x="829" y="1110" width="181" height="30" as="geometry"/>
                </mxCell>
                <mxCell id="L3fcYwblnFl0i-M-pqyj-25" value="3" style="ellipse;whiteSpace=wrap;html=1;aspect=fixed;" parent="1" vertex="1">
                    <mxGeometry x="804" y="300" width="30" height="30" as="geometry"/>
                </mxCell>
                <mxCell id="L3fcYwblnFl0i-M-pqyj-26" value="4" style="ellipse;whiteSpace=wrap;html=1;aspect=fixed;" parent="1" vertex="1">
                    <mxGeometry x="909" y="540" width="30" height="30" as="geometry"/>
                </mxCell>
                <mxCell id="L3fcYwblnFl0i-M-pqyj-27" value="5" style="ellipse;whiteSpace=wrap;html=1;aspect=fixed;" parent="1" vertex="1">
                    <mxGeometry x="399" y="540" width="30" height="30" as="geometry"/>
                </mxCell>
                <mxCell id="L3fcYwblnFl0i-M-pqyj-28" value="6" style="ellipse;whiteSpace=wrap;html=1;aspect=fixed;" parent="1" vertex="1">
                    <mxGeometry x="399" y="720" width="30" height="30" as="geometry"/>
                </mxCell>
                <mxCell id="L3fcYwblnFl0i-M-pqyj-30" value="7" style="ellipse;whiteSpace=wrap;html=1;aspect=fixed;" parent="1" vertex="1">
                    <mxGeometry x="949" y="740" width="30" height="30" as="geometry"/>
                </mxCell>
                <mxCell id="L3fcYwblnFl0i-M-pqyj-31" value="8" style="ellipse;whiteSpace=wrap;html=1;aspect=fixed;" parent="1" vertex="1">
                    <mxGeometry x="389" y="940" width="30" height="30" as="geometry"/>
                </mxCell>
                <mxCell id="L3fcYwblnFl0i-M-pqyj-32" value="9" style="ellipse;whiteSpace=wrap;html=1;aspect=fixed;" parent="1" vertex="1">
                    <mxGeometry x="949" y="940" width="30" height="30" as="geometry"/>
                </mxCell>
                <mxCell id="L3fcYwblnFl0i-M-pqyj-33" value="10" style="ellipse;whiteSpace=wrap;html=1;aspect=fixed;" parent="1" vertex="1">
                    <mxGeometry x="339" y="1125" width="30" height="30" as="geometry"/>
                </mxCell>
                <mxCell id="L3fcYwblnFl0i-M-pqyj-34" value="11" style="ellipse;whiteSpace=wrap;html=1;aspect=fixed;" parent="1" vertex="1">
                    <mxGeometry x="339" y="1205" width="30" height="30" as="geometry"/>
                </mxCell>
                <mxCell id="L3fcYwblnFl0i-M-pqyj-35" value="12" style="ellipse;whiteSpace=wrap;html=1;aspect=fixed;" parent="1" vertex="1">
                    <mxGeometry x="339" y="1280" width="30" height="30" as="geometry"/>
                </mxCell>
                <mxCell id="ZAiZWVy9Jy8FcLG4C_XS-29" style="edgeStyle=orthogonalEdgeStyle;rounded=0;orthogonalLoop=1;jettySize=auto;html=1;entryX=1;entryY=1;entryDx=0;entryDy=0;endArrow=diamond;endFill=0;" parent="1" source="J-Sc1r2uSUA0XKrwZ807-126" edge="1">
                    <mxGeometry relative="1" as="geometry">
                        <Array as="points">
                            <mxPoint x="749" y="438"/>
                        </Array>
                        <mxPoint x="749" y="570" as="sourcePoint"/>
                        <mxPoint x="659" y="438" as="targetPoint"/>
                    </mxGeometry>
                </mxCell>
                <mxCell id="ZAiZWVy9Jy8FcLG4C_XS-30" value="A pod has one&lt;br&gt;or more volumes" style="edgeLabel;html=1;align=center;verticalAlign=middle;resizable=0;points=[];" parent="ZAiZWVy9Jy8FcLG4C_XS-29" vertex="1" connectable="0">
                    <mxGeometry x="0.2703" y="1" relative="1" as="geometry">
                        <mxPoint x="10" y="80" as="offset"/>
                    </mxGeometry>
                </mxCell>
                <mxCell id="ZAiZWVy9Jy8FcLG4C_XS-31" value="0..n" style="edgeLabel;html=1;align=center;verticalAlign=middle;resizable=0;points=[];" parent="ZAiZWVy9Jy8FcLG4C_XS-29" vertex="1" connectable="0">
                    <mxGeometry x="0.8919" y="1" relative="1" as="geometry">
                        <mxPoint x="7" y="9" as="offset"/>
                    </mxGeometry>
                </mxCell>
                <mxCell id="vROkPPMipNlgsFPqCeSH-25" value="gcePersistentDisk&#10;specific type of volume with its own&#10;attributes" style="text;whiteSpace=wrap;html=1;" parent="1" vertex="1">
                    <mxGeometry x="669" y="328.84" width="140" height="70" as="geometry"/>
                </mxCell>
            </root>
        </mxGraphModel>
    </diagram>
</mxfile>